<svg width="16" height="16" viewBox="0 0 16 16" fill="none" xmlns="http://www.w3.org/2000/svg">
<path d="M4.38505 10.3211C3.44187 10.8827 0.96891 12.0294 2.47511 13.4644C3.21087 14.1653 4.03033 14.6667 5.06058 14.6667H10.9394C11.9697 14.6667 12.7891 14.1653 13.5249 13.4644C15.0311 12.0294 12.5581 10.8827 11.615 10.3211C9.40321 9.00409 6.59679 9.00409 4.38505 10.3211Z" stroke="#013871" stroke-linecap="round" stroke-linejoin="round"/>
<path d="M11 4.33333C11 5.99018 9.65685 7.33333 8 7.33333C6.34315 7.33333 5 5.99018 5 4.33333C5 2.67647 6.34315 1.33333 8 1.33333C9.65685 1.33333 11 2.67647 11 4.33333Z" stroke="#013871"/>
</svg>
