<svg width="16" height="16" viewBox="0 0 16 16" fill="none" xmlns="http://www.w3.org/2000/svg">
<path d="M9.66683 6.00001C9.66683 6.92048 8.92064 7.66668 8.00016 7.66668C7.07969 7.66668 6.3335 6.92048 6.3335 6.00001C6.3335 5.07954 7.07969 4.33334 8.00016 4.33334C8.92064 4.33334 9.66683 5.07954 9.66683 6.00001Z" stroke="#013871"/>
<path d="M8.83843 11.6624C8.61358 11.879 8.31304 12 8.00026 12C7.68749 12 7.38695 11.879 7.1621 11.6624C5.10303 9.6672 2.34362 7.43837 3.6893 4.2025C4.4169 2.45289 6.16346 1.33334 8.00026 1.33334C9.83707 1.33334 11.5836 2.45289 12.3112 4.2025C13.6552 7.43429 10.9026 9.67408 8.83843 11.6624Z" stroke="#013871"/>
<path d="M12 13.3333C12 14.0697 10.2091 14.6667 8 14.6667C5.79086 14.6667 4 14.0697 4 13.3333" stroke="#013871" stroke-linecap="round"/>
</svg>
