<svg width="48" height="48" viewBox="0 0 48 48" fill="none" xmlns="http://www.w3.org/2000/svg">
<path d="M0.5 24C0.5 11.0213 11.0213 0.5 24 0.5C36.9787 0.5 47.5 11.0213 47.5 24C47.5 36.9787 36.9787 47.5 24 47.5C11.0213 47.5 0.5 36.9787 0.5 24Z" fill="#F8F9FC"/>
<path d="M0.5 24C0.5 11.0213 11.0213 0.5 24 0.5C36.9787 0.5 47.5 11.0213 47.5 24C47.5 36.9787 36.9787 47.5 24 47.5C11.0213 47.5 0.5 36.9787 0.5 24Z" stroke="#DEE2EB"/>
<path fill-rule="evenodd" clip-rule="evenodd" d="M21.9747 15.6632L22.0827 15.404C22.1317 15.2864 22.155 15.1671 22.193 14.9721C22.2022 14.925 22.2123 14.8736 22.2237 14.8167C22.4614 13.6379 23.5018 12.7501 24.751 12.7501C26.0002 12.7501 27.0405 13.6379 27.2782 14.8167C27.2896 14.8735 27.2998 14.925 27.3089 14.972C27.3469 15.167 27.3703 15.2864 27.4193 15.404L27.5273 15.6632C30.0299 16.7399 31.7822 19.2279 31.7822 22.1251V23.2975C31.7823 24.8719 32.7095 26.299 34.1483 26.9385L36.001 27.7619V28.4343C36.001 28.8699 36.001 29.2388 35.9763 29.5412C35.9504 29.8583 35.8938 30.1637 35.7455 30.4548C35.5208 30.8958 35.1623 31.2543 34.7213 31.479C34.4302 31.6273 34.1248 31.6839 33.8077 31.7098C33.5053 31.7345 33.1364 31.7345 32.7009 31.7345H29.4385C29.0811 31.7345 28.6555 32.0632 28.4003 32.672C27.8036 34.0953 26.4283 35.2501 24.751 35.2501C23.0737 35.2501 21.6984 34.0953 21.1017 32.672C20.8464 32.0632 20.4208 31.7345 20.0635 31.7345H16.8012C16.3656 31.7345 15.9967 31.7345 15.6943 31.7098C15.3772 31.6839 15.0718 31.6273 14.7807 31.479C14.3397 31.2543 13.9811 30.8958 13.7564 30.4548C13.6081 30.1637 13.5516 29.8583 13.5257 29.5412C13.501 29.2388 13.501 28.8699 13.501 28.4343V27.7619L15.3534 26.9386C16.7922 26.2992 17.7197 24.8722 17.7197 23.2977V22.1251C17.7197 19.2279 19.4721 16.7399 21.9747 15.6632ZM23.6023 15.0946C23.7102 14.5593 24.1844 14.1564 24.751 14.1564C25.3176 14.1564 25.7918 14.5593 25.8997 15.0946C25.9055 15.1233 25.9116 15.1554 25.9182 15.1903C25.5386 15.1269 25.1487 15.0939 24.751 15.0939C24.3533 15.0939 23.9634 15.1269 23.5838 15.1903C23.5904 15.1554 23.5964 15.1233 23.6023 15.0946ZM24.751 16.5001C21.6444 16.5001 19.126 19.0185 19.126 22.1251V23.2975C19.1259 25.4277 17.8714 27.3583 15.9249 28.2236L14.9075 28.6757C14.9082 29.0014 14.9118 29.2371 14.9272 29.4267C14.946 29.6568 14.9789 29.7566 15.0094 29.8164C15.0993 29.9928 15.2427 30.1362 15.4191 30.2261C15.4789 30.2565 15.5787 30.2894 15.8088 30.3082C16.0471 30.3277 16.3581 30.3282 16.8291 30.3282H32.6729C33.1439 30.3282 33.4548 30.3277 33.6931 30.3082C33.9233 30.2894 34.023 30.2565 34.0829 30.2261C34.2593 30.1362 34.4026 29.9928 34.4925 29.8164C34.523 29.7566 34.5559 29.6568 34.5747 29.4267C34.5902 29.2371 34.5937 29.0014 34.5945 28.6757L33.5774 28.2237C31.6308 27.3584 30.3761 25.4279 30.376 23.2977V22.1251C30.376 19.0185 27.8576 16.5001 24.751 16.5001ZM22.3986 32.1283C22.3445 31.9993 22.2794 31.8666 22.2035 31.7345H27.2984C27.2225 31.8666 27.1574 31.9993 27.1034 32.1283C26.6799 33.1385 25.7518 33.8439 24.751 33.8439C23.7502 33.8439 22.8221 33.1385 22.3986 32.1283Z" fill="#677084"/>
<circle cx="32" cy="19.5" r="4" fill="#FF4844"/>
</svg>
