<svg width="15" height="16" viewBox="0 0 15 16" fill="none" xmlns="http://www.w3.org/2000/svg">
<path d="M10.834 4C12.3977 4 12.8462 4 13.3848 4.41329C13.5235 4.51969 13.6476 4.64381 13.754 4.78248C14.1673 5.32109 14.1673 6.10295 14.1673 7.66667V10.6667C14.1673 12.5523 14.1673 13.4951 13.5815 14.0809C12.9957 14.6667 12.0529 14.6667 10.1673 14.6667H4.83398C2.94837 14.6667 2.00556 14.6667 1.41977 14.0809C0.833984 13.4951 0.833984 12.5523 0.833984 10.6667V7.66667C0.833984 6.10295 0.833984 5.32109 1.24728 4.78248C1.35368 4.64381 1.4778 4.51969 1.61646 4.41329C2.15508 4 2.6036 4 4.16732 4" stroke="#013871" stroke-linecap="round"/>
<path d="M10.8346 4.66665L10.2441 3.19027C9.98929 2.55329 9.76757 1.83071 9.1124 1.50635C8.7629 1.33331 8.34237 1.33331 7.5013 1.33331C6.66024 1.33331 6.2397 1.33331 5.8902 1.50635C5.23504 1.83071 5.01331 2.55329 4.75852 3.19027L4.16797 4.66665" stroke="#013871" stroke-linecap="round" stroke-linejoin="round"/>
<path d="M9.83464 9.33333C9.83464 10.622 8.78997 11.6667 7.5013 11.6667C6.21264 11.6667 5.16797 10.622 5.16797 9.33333C5.16797 8.04467 6.21264 7 7.5013 7C8.78997 7 9.83464 8.04467 9.83464 9.33333Z" stroke="#013871"/>
<path d="M7.49987 4H7.50586" stroke="#013871" stroke-linecap="round" stroke-linejoin="round"/>
</svg>
