<svg width="50" height="50" viewBox="0 0 50 50" fill="none" xmlns="http://www.w3.org/2000/svg">
<circle cx="25" cy="25" r="25" fill="#F7F7F7"/>
<g clip-path="url(#clip0_110_1766)">
<path d="M35.6788 10H28.75H21.25H14.3212C11.9388 10 10 11.9388 10 14.3212V35.6787C10 38.0613 11.9388 40 14.3212 40H21.25C21.9412 40 22.5 39.44 22.5 38.75C22.5 38.06 21.9412 37.5 21.25 37.5H14.3212C13.3162 37.5 12.5 36.6825 12.5 35.6788V14.3212C12.5 13.3175 13.3162 12.5 14.3212 12.5H20V18.75C20 19.2112 20.2537 19.635 20.66 19.8525C21.0662 20.07 21.56 20.045 21.9437 19.79L25 17.7525L28.0562 19.79C28.265 19.9299 28.5075 20 28.75 20C28.9525 20 29.155 19.9512 29.34 19.8525C29.7462 19.635 30 19.2112 30 18.75V12.5H35.6787C36.6837 12.5 37.5 13.3175 37.5 14.3213V18.75C37.5 19.44 38.0587 20 38.75 20C39.4412 20 40 19.44 40 18.75V14.3212C40 11.9388 38.0613 10 35.6788 10Z" fill="#013871"/>
<path d="M31.25 22.5C26.4262 22.5 22.5 26.425 22.5 31.2499C22.5 36.0749 26.4262 40 31.25 40C36.0738 40 40 36.075 40 31.25C40 26.425 36.0737 22.5 31.25 22.5ZM34.6337 32.8663C35.1224 33.355 35.1224 34.145 34.6337 34.6337C34.39 34.8775 34.07 35 33.7499 35C33.43 35 33.1099 34.8775 32.8662 34.6337L31.2499 33.0175L29.6337 34.6337C29.3899 34.8775 29.0699 35 28.7499 35C28.4299 35 28.1099 34.8775 27.8661 34.6337C27.3774 34.145 27.3774 33.355 27.8661 32.8663L29.4824 31.25L27.8661 29.6338C27.3774 29.145 27.3774 28.355 27.8661 27.8663C28.3549 27.3775 29.1449 27.3775 29.6336 27.8663L31.2499 29.4825L32.8661 27.8663C33.3548 27.3775 34.1449 27.3775 34.6336 27.8663C35.1223 28.355 35.1223 29.145 34.6336 29.6338L33.0173 31.25L34.6337 32.8663Z" fill="#013871"/>
</g>
<defs>
<clipPath id="clip0_110_1766">
<rect width="30" height="30" fill="white" transform="translate(10 10)"/>
</clipPath>
</defs>
</svg>
