<svg width="51" height="50" viewBox="0 0 51 50" fill="none" xmlns="http://www.w3.org/2000/svg">
<circle cx="25.5" cy="25" r="25" fill="#F7F7F7"/>
<g clip-path="url(#clip0_110_1754)">
<path d="M34.167 22.6667H17.8337C17.1885 22.6667 16.667 22.144 16.667 21.5C16.667 20.856 17.1885 20.3333 17.8337 20.3333H34.167C34.8122 20.3333 35.3337 20.856 35.3337 21.5C35.3337 22.144 34.8122 22.6667 34.167 22.6667Z" fill="#013871"/>
<path d="M26.0003 27.3333H17.8337C17.1885 27.3333 16.667 26.8107 16.667 26.1667C16.667 25.5227 17.1885 25 17.8337 25H26.0003C26.6455 25 27.167 25.5227 27.167 26.1667C27.167 26.8107 26.6455 27.3333 26.0003 27.3333Z" fill="#013871"/>
<path d="M23.667 32H17.8337C17.1885 32 16.667 31.4773 16.667 30.8333C16.667 30.1893 17.1885 29.6667 17.8337 29.6667H23.667C24.3122 29.6667 24.8337 30.1893 24.8337 30.8333C24.8337 31.4773 24.3122 32 23.667 32Z" fill="#013871"/>
<path d="M33.5837 26.1667C30.0463 26.1667 27.167 29.0448 27.167 32.5833C27.167 36.1218 30.0463 39 33.5837 39C37.121 39 40.0003 36.1218 40.0003 32.5833C40.0003 29.0448 37.121 26.1667 33.5837 26.1667ZM36.9262 31.6185L33.7435 35.1185C33.5288 35.353 33.2302 35.4907 32.9117 35.5C32.9012 35.5 32.8895 35.5 32.8802 35.5C32.5733 35.5 32.2793 35.3798 32.0612 35.164L30.2855 33.414C29.8258 32.9613 29.8223 32.2228 30.2738 31.7643C30.7242 31.3047 31.4627 31.3 31.9235 31.7515L32.8335 32.6498L35.1983 30.0482C35.6335 29.5722 36.372 29.5372 36.8468 29.97C37.324 30.404 37.359 31.1413 36.9262 31.6185Z" fill="#013871"/>
<path d="M36.5 11H15.5C13.575 11 12 12.575 12 14.5V33.1667C12 35.0917 13.575 36.6667 15.5 36.6667H25.86C25.4633 35.9433 25.1717 35.1617 25.0083 34.3333H15.5C14.8583 34.3333 14.3333 33.8083 14.3333 33.1667V16.8333H37.6667V24.86C38.5533 25.315 39.3467 25.9217 40 26.6567V14.5C40 12.575 38.425 11 36.5 11Z" fill="#013871"/>
</g>
<defs>
<clipPath id="clip0_110_1754">
<rect width="28" height="28" fill="white" transform="translate(12 11)"/>
</clipPath>
</defs>
</svg>
