<svg width="54" height="54" viewBox="0 0 54 54" fill="none" xmlns="http://www.w3.org/2000/svg">
<path d="M49.9359 21.0984C49.0523 20.175 48.1383 19.2234 47.7938 18.3867C47.475 17.6203 47.4562 16.35 47.4375 15.1195C47.4023 12.832 47.3648 10.2398 45.5625 8.4375C43.7602 6.63516 41.168 6.59766 38.8805 6.5625C37.65 6.54375 36.3797 6.525 35.6133 6.20625C34.7789 5.86172 33.825 4.94766 32.9016 4.06406C31.2844 2.51016 29.4469 0.75 27 0.75C24.5531 0.75 22.718 2.51016 21.0984 4.06406C20.175 4.94766 19.2234 5.86172 18.3867 6.20625C17.625 6.525 16.35 6.54375 15.1195 6.5625C12.832 6.59766 10.2398 6.63516 8.4375 8.4375C6.63516 10.2398 6.60938 12.832 6.5625 15.1195C6.54375 16.35 6.525 17.6203 6.20625 18.3867C5.86172 19.2211 4.94766 20.175 4.06406 21.0984C2.51016 22.7156 0.75 24.5531 0.75 27C0.75 29.4469 2.51016 31.282 4.06406 32.9016C4.94766 33.825 5.86172 34.7766 6.20625 35.6133C6.525 36.3797 6.54375 37.65 6.5625 38.8805C6.59766 41.168 6.63516 43.7602 8.4375 45.5625C10.2398 47.3648 12.832 47.4023 15.1195 47.4375C16.35 47.4562 17.6203 47.475 18.3867 47.7938C19.2211 48.1383 20.175 49.0523 21.0984 49.9359C22.7156 51.4898 24.5531 53.25 27 53.25C29.4469 53.25 31.282 51.4898 32.9016 49.9359C33.825 49.0523 34.7766 48.1383 35.6133 47.7938C36.3797 47.475 37.65 47.4562 38.8805 47.4375C41.168 47.4023 43.7602 47.3648 45.5625 45.5625C47.3648 43.7602 47.4023 41.168 47.4375 38.8805C47.4562 37.65 47.475 36.3797 47.7938 35.6133C48.1383 34.7789 49.0523 33.825 49.9359 32.9016C51.4898 31.2844 53.25 29.4469 53.25 27C53.25 24.5531 51.4898 22.718 49.9359 21.0984ZM47.2289 30.307C46.1063 31.4789 44.9437 32.6906 44.3273 34.1789C43.7367 35.6086 43.7109 37.2422 43.6875 38.8242C43.6641 40.4648 43.6383 42.1828 42.9094 42.9094C42.1805 43.6359 40.4742 43.6641 38.8242 43.6875C37.2422 43.7109 35.6086 43.7367 34.1789 44.3273C32.6906 44.9437 31.4789 46.1063 30.307 47.2289C29.1352 48.3516 27.9375 49.5 27 49.5C26.0625 49.5 24.8555 48.3469 23.693 47.2289C22.5305 46.1109 21.3094 44.9437 19.8211 44.3273C18.3914 43.7367 16.7578 43.7109 15.1758 43.6875C13.5352 43.6641 11.8172 43.6383 11.0906 42.9094C10.3641 42.1805 10.3359 40.4742 10.3125 38.8242C10.2891 37.2422 10.2633 35.6086 9.67266 34.1789C9.05625 32.6906 7.89375 31.4789 6.77109 30.307C5.64844 29.1352 4.5 27.9375 4.5 27C4.5 26.0625 5.65312 24.8555 6.77109 23.693C7.88906 22.5305 9.05625 21.3094 9.67266 19.8211C10.2633 18.3914 10.2891 16.7578 10.3125 15.1758C10.3359 13.5352 10.3617 11.8172 11.0906 11.0906C11.8195 10.3641 13.5258 10.3359 15.1758 10.3125C16.7578 10.2891 18.3914 10.2633 19.8211 9.67266C21.3094 9.05625 22.5211 7.89375 23.693 6.77109C24.8648 5.64844 26.0625 4.5 27 4.5C27.9375 4.5 29.1445 5.65312 30.307 6.77109C31.4695 7.88906 32.6906 9.05625 34.1789 9.67266C35.6086 10.2633 37.2422 10.2891 38.8242 10.3125C40.4648 10.3359 42.1828 10.3617 42.9094 11.0906C43.6359 11.8195 43.6641 13.5258 43.6875 15.1758C43.7109 16.7578 43.7367 18.3914 44.3273 19.8211C44.9437 21.3094 46.1063 22.5211 47.2289 23.693C48.3516 24.8648 49.5 26.0625 49.5 27C49.5 27.9375 48.3469 29.1445 47.2289 30.307ZM37.7016 20.0484C37.8759 20.2226 38.0142 20.4294 38.1086 20.657C38.2029 20.8846 38.2515 21.1286 38.2515 21.375C38.2515 21.6214 38.2029 21.8654 38.1086 22.093C38.0142 22.3206 37.8759 22.5274 37.7016 22.7016L24.5766 35.8266C24.4024 36.0009 24.1956 36.1392 23.968 36.2336C23.7404 36.3279 23.4964 36.3765 23.25 36.3765C23.0036 36.3765 22.7596 36.3279 22.532 36.2336C22.3044 36.1392 22.0976 36.0009 21.9234 35.8266L16.2984 30.2016C15.9466 29.8497 15.749 29.3726 15.749 28.875C15.749 28.3774 15.9466 27.9003 16.2984 27.5484C16.6503 27.1966 17.1274 26.999 17.625 26.999C18.1226 26.999 18.5997 27.1966 18.9516 27.5484L23.25 31.8492L35.0484 20.0484C35.2226 19.8741 35.4294 19.7358 35.657 19.6415C35.8846 19.5471 36.1286 19.4985 36.375 19.4985C36.6214 19.4985 36.8654 19.5471 37.093 19.6415C37.3206 19.7358 37.5274 19.8741 37.7016 20.0484Z" fill="#013871"/>
</svg>
