<svg width="16" height="16" viewBox="0 0 16 16" fill="none" xmlns="http://www.w3.org/2000/svg">
<path d="M10 11.3333C9.46698 11.7483 8.76683 12 8 12C7.23317 12 6.53302 11.7483 6 11.3333" stroke="white" stroke-linecap="round"/>
<path d="M1.56776 8.80898C1.33241 7.2775 1.21474 6.51177 1.50427 5.83293C1.79381 5.15409 2.43618 4.68963 3.72092 3.76072L4.68082 3.06668C6.27902 1.91112 7.07812 1.33334 8.00016 1.33334C8.9222 1.33334 9.7213 1.91112 11.3195 3.06668L12.2794 3.76072C13.5641 4.68963 14.2065 5.15409 14.4961 5.83293C14.7856 6.51177 14.6679 7.2775 14.4326 8.80898L14.2319 10.1149C13.8982 12.286 13.7314 13.3715 12.9528 14.0191C12.1742 14.6667 11.0359 14.6667 8.75937 14.6667H7.24095C4.96439 14.6667 3.8261 14.6667 3.0475 14.0191C2.26889 13.3715 2.10208 12.286 1.76845 10.1149L1.56776 8.80898Z" stroke="white" stroke-linejoin="round"/>
</svg>
