<svg width="20" height="20" viewBox="0 0 20 20" fill="none" xmlns="http://www.w3.org/2000/svg">
<path d="M12.5005 14.1667C11.8342 14.6853 10.959 15 10.0005 15C9.04195 15 8.16676 14.6853 7.50049 14.1667" stroke="#013871" stroke-width="1.5" stroke-linecap="round"/>
<path d="M1.95982 11.0112C1.66563 9.09689 1.51854 8.13972 1.88046 7.29117C2.24238 6.44262 3.04535 5.86205 4.65127 4.70091L5.85115 3.83335C7.8489 2.38891 8.84778 1.66669 10.0003 1.66669C11.1529 1.66669 12.1517 2.38891 14.1495 3.83335L15.3494 4.70091C16.9553 5.86205 17.7583 6.44262 18.1202 7.29117C18.4821 8.13972 18.335 9.09689 18.0408 11.0112L17.79 12.6437C17.3729 15.3575 17.1644 16.7143 16.1912 17.5239C15.2179 18.3334 13.795 18.3334 10.9493 18.3334H9.05131C6.2056 18.3334 4.78275 18.3334 3.80949 17.5239C2.83623 16.7143 2.62772 15.3575 2.21068 12.6437L1.95982 11.0112Z" stroke="#013871" stroke-width="1.5" stroke-linejoin="round"/>
</svg>
