<svg width="20" height="20" viewBox="0 0 20 20" fill="none" xmlns="http://www.w3.org/2000/svg">
<path d="M10 2.5H4.16667C3.72464 2.5 3.30072 2.67559 2.98816 2.98816C2.67559 3.30072 2.5 3.72464 2.5 4.16667V15.8333C2.5 16.2754 2.67559 16.6993 2.98816 17.0118C3.30072 17.3244 3.72464 17.5 4.16667 17.5H15.8333C16.2754 17.5 16.6993 17.3244 17.0118 17.0118C17.3244 16.6993 17.5 16.2754 17.5 15.8333V10" stroke="#A1A3AE" stroke-width="1.5" stroke-linecap="round" stroke-linejoin="round"/>
<path d="M15.3123 2.18751C15.6438 1.85599 16.0934 1.66974 16.5623 1.66974C17.0311 1.66974 17.4807 1.85599 17.8123 2.18751C18.1438 2.51903 18.33 2.96866 18.33 3.43751C18.33 3.90635 18.1438 4.35599 17.8123 4.68751L10.3014 12.1992C10.1035 12.3969 9.85909 12.5416 9.59059 12.62L7.19642 13.32C7.12471 13.3409 7.0487 13.3422 6.97634 13.3236C6.90399 13.3051 6.83794 13.2675 6.78512 13.2146C6.73231 13.1618 6.69466 13.0958 6.67612 13.0234C6.65758 12.9511 6.65884 12.875 6.67975 12.8033L7.37975 10.4092C7.45852 10.1409 7.60353 9.89672 7.80142 9.69917L15.3123 2.18751Z" stroke="#A1A3AE" stroke-width="1.5" stroke-linecap="round" stroke-linejoin="round"/>
</svg>
