<svg width="81" height="34" viewBox="0 0 81 34" fill="none" xmlns="http://www.w3.org/2000/svg">
<rect width="81" height="34" rx="8" fill="#F2F4F7"/>
<path d="M28.218 22H20.994V11.99H28.078V13.32H22.534V16.162H27.392V17.492H22.534V20.67H28.218V22ZM34.3962 15.728V11.99H35.7682V22H34.3962V21.16H34.3682C33.9762 21.664 33.2902 22.196 32.1702 22.196C30.3502 22.196 28.9642 20.782 28.9642 18.43C28.9642 16.078 30.3502 14.65 32.1702 14.65C33.2902 14.65 33.9762 15.168 34.3682 15.728H34.3962ZM32.3942 21.062C33.6262 21.062 34.3822 20.04 34.3822 18.43C34.3822 16.806 33.6262 15.798 32.3942 15.798C31.0502 15.798 30.3922 17.03 30.3922 18.43C30.3922 19.83 31.0502 21.062 32.3942 21.062ZM38.9326 13.586H37.3786V12.102H38.9326V13.586ZM38.8346 22H37.4626V14.86H38.8346V22ZM43.1567 20.95C43.3947 20.95 43.5067 20.936 43.7447 20.894V22C43.3947 22.07 43.1707 22.084 42.8767 22.084C41.7007 22.084 40.9867 21.636 40.9867 19.984V15.994H39.9507V14.86H40.9867V12.564H42.3587V14.86H43.7307V15.994H42.3587V20.026C42.3587 20.782 42.5687 20.95 43.1567 20.95Z" fill="#013871"/>
<path d="M56.9726 11.3703C57.3824 10.9263 57.5873 10.7043 57.8051 10.5748C58.3305 10.2623 58.9775 10.2525 59.5117 10.5491C59.7331 10.672 59.9443 10.8878 60.3668 11.3194C60.7893 11.7509 61.0005 11.9667 61.1208 12.1929C61.4111 12.7386 61.4016 13.3995 61.0957 13.9362C60.9689 14.1587 60.7516 14.368 60.3169 14.7867L55.1449 19.7682C54.3211 20.5616 53.9092 20.9583 53.3945 21.1594C52.8797 21.3605 52.3138 21.3457 51.182 21.3161L51.028 21.312C50.6834 21.303 50.5111 21.2985 50.411 21.1849C50.3109 21.0712 50.3245 20.8957 50.3519 20.5447L50.3667 20.3542C50.4437 19.3663 50.4822 18.8724 50.6751 18.4284C50.868 17.9844 51.2007 17.6238 51.8662 16.9028L56.9726 11.3703Z" stroke="#013871" stroke-linejoin="round"/>
<path d="M56.3828 11.4333L60.2328 15.2833" stroke="#013871" stroke-linejoin="round"/>
<path d="M56.9316 21.3333L61.3316 21.3333" stroke="#013871" stroke-linecap="round" stroke-linejoin="round"/>
</svg>
