<svg width="20" height="20" viewBox="0 0 20 20" fill="none" xmlns="http://www.w3.org/2000/svg">
<path d="M1.66536 6.66667C1.66536 6.66667 5.39632 2.5 9.9987 2.5C14.6011 2.5 18.332 6.66667 18.332 6.66667" stroke="#677084" stroke-width="1.5" stroke-linecap="round"/>
<path d="M17.9526 10.8708C18.206 11.2261 18.3327 11.4037 18.3327 11.6667C18.3327 11.9296 18.206 12.1072 17.9527 12.4625C16.8143 14.0588 13.907 17.5 9.99935 17.5C6.09167 17.5 3.18443 14.0588 2.04605 12.4625C1.79269 12.1072 1.66602 11.9296 1.66602 11.6667C1.66602 11.4037 1.79269 11.2261 2.04605 10.8708C3.18443 9.27454 6.09166 5.83334 9.99935 5.83334C13.907 5.83334 16.8143 9.27454 17.9526 10.8708Z" stroke="#677084" stroke-width="1.5"/>
<path d="M12.5 11.6667C12.5 10.286 11.3807 9.16666 10 9.16666C8.61929 9.16666 7.5 10.286 7.5 11.6667C7.5 13.0474 8.61929 14.1667 10 14.1667C11.3807 14.1667 12.5 13.0474 12.5 11.6667Z" stroke="#677084" stroke-width="1.5"/>
</svg>
