<svg width="18" height="13" viewBox="0 0 18 13" fill="none" xmlns="http://www.w3.org/2000/svg">
<g clip-path="url(#clip0_618_793)">
<path d="M4.09092 13.9311V6.75626L1.93409 4.72061L0 3.59096V12.6649C0 13.3655 0.550195 13.9311 1.2273 13.9311H4.09092Z" fill="#4285F4"/>
<path d="M13.9082 13.9311H16.7718C17.451 13.9311 17.9991 13.3634 17.9991 12.6649V3.59103L15.8085 4.88491L13.9082 6.75627V13.9311Z" fill="#34A853"/>
<path d="M4.09036 6.75626L3.79688 3.95285L4.09036 1.26971L8.99944 5.06814L13.9085 1.26971L14.2368 3.80799L13.9085 6.75626L8.99944 10.5547L4.09036 6.75626Z" fill="#EA4335"/>
<path d="M13.9082 1.26974V6.75629L17.9991 3.59099V1.90279C17.9991 0.337039 16.2666 -0.555552 15.0537 0.383464L13.9082 1.26974Z" fill="#FBBC04"/>
<path d="M0 3.59098L1.88149 5.04683L4.09092 6.75628V1.26973L2.94539 0.383451C1.73039 -0.555637 0 0.337026 0 1.90271V3.59098Z" fill="#C5221F"/>
</g>
<defs>
<clipPath id="clip0_618_793">
<rect width="18" height="13" fill="white"/>
</clipPath>
</defs>
</svg>
