<svg width="20" height="20" viewBox="0 0 20 20" fill="none" xmlns="http://www.w3.org/2000/svg">
<path d="M2.258 4H16.9946C17.689 4 18.2526 4.56358 18.2526 5.258V15.322C18.2526 15.6556 18.12 15.9756 17.8841 16.2115C17.6482 16.4475 17.3282 16.58 16.9946 16.58H2.258C1.92436 16.58 1.60438 16.4475 1.36846 16.2115C1.13254 15.9756 1 15.6556 1 15.322V5.258C1 4.56358 1.56358 4 2.258 4ZM2.07829 7.1716V15.322C2.07829 15.4212 2.1588 15.5017 2.258 15.5017H16.9946C17.0422 15.5017 17.0879 15.4828 17.1216 15.4491C17.1554 15.4154 17.1743 15.3697 17.1743 15.322V7.1716L10.3308 11.796C9.9052 12.0835 9.34737 12.0835 8.92181 11.796L2.07829 7.1716ZM2.07829 5.258V5.87047L9.52565 10.9025C9.55536 10.9226 9.59041 10.9333 9.62629 10.9333C9.66216 10.9333 9.69721 10.9226 9.72693 10.9025L17.1743 5.87047V5.258C17.1743 5.21034 17.1554 5.16463 17.1216 5.13092C17.0879 5.09722 17.0422 5.07829 16.9946 5.07829H2.258C2.21034 5.07829 2.16463 5.09722 2.13092 5.13092C2.09722 5.16463 2.07829 5.21034 2.07829 5.258Z" fill="#677084"/>
</svg>
