<svg width="48" height="48" viewBox="0 0 48 48" fill="none" xmlns="http://www.w3.org/2000/svg">
<rect x="0.5" y="0.5" width="47" height="47" rx="23.5" fill="#F8F9FC"/>
<rect x="0.5" y="0.5" width="47" height="47" rx="23.5" stroke="#DEE2EB"/>
<path d="M27.502 22.0004C27.502 22.8288 28.1736 23.5004 29.002 23.5004C29.8304 23.5004 30.502 22.8288 30.502 22.0004C30.502 21.172 29.8304 20.5004 29.002 20.5004C28.1736 20.5004 27.502 21.172 27.502 22.0004Z" fill="#4A5264"/>
<path d="M18.998 23.5004C18.1696 23.5004 17.498 22.8288 17.498 22.0004C17.498 21.172 18.1696 20.5004 18.998 20.5004C19.8265 20.5004 20.498 21.172 20.498 22.0004C20.498 22.8288 19.8265 23.5004 18.998 23.5004Z" fill="#4A5264"/>
<path d="M22.501 21.9999C22.501 22.8283 23.1726 23.4999 24.001 23.4999C24.8294 23.4999 25.501 22.8283 25.501 21.9999C25.501 21.1714 24.8294 20.4999 24.001 20.4999C23.1726 20.4999 22.501 21.1714 22.501 21.9999Z" fill="#4A5264"/>
<path fill-rule="evenodd" clip-rule="evenodd" d="M34.002 21.628C34.002 28.6249 28.918 32.5582 25.502 34.3143C24.9487 34.5988 24.4391 34.8261 24.002 35.0001V34.2559C24.002 33.9673 23.9603 33.6894 23.8832 33.4246C23.5174 32.1691 22.3537 31.2078 21.0489 30.7959C17.1036 29.5506 14.002 25.9168 14.002 21.628C14.002 16.3106 18.7698 12.0001 24.002 12.0001C29.2342 12.0001 34.002 16.3106 34.002 21.628ZM21.5004 29.3655C18.0876 28.2882 15.502 25.171 15.502 21.628C15.502 17.2195 19.5153 13.5001 24.002 13.5001C28.4886 13.5001 32.502 17.2195 32.502 21.628C32.502 27.5324 28.377 31.0378 25.2472 32.7537C24.6373 31.0251 23.0306 29.8485 21.5004 29.3655Z" fill="#4A5264"/>
</svg>
