<svg width="20" height="20" viewBox="0 0 20 20" fill="none" xmlns="http://www.w3.org/2000/svg">
<path d="M6.16683 6.20001H14.5668C15.6168 6.20001 16.4918 7.25001 16.6668 8.30001L17.7168 14.6C17.8919 15.6506 16.6668 16.7 15.6168 16.7H5.11683C4.06683 16.7 2.84174 15.6506 3.01683 14.6L4.06683 8.30001C4.24183 7.25001 5.11683 6.20001 6.16683 6.20001Z" stroke="#677084" stroke-width="1.5" stroke-linecap="round" stroke-linejoin="round"/>
<path d="M7.21777 8.30002V5.13782" stroke="#677084" stroke-width="1.5" stroke-linecap="round" stroke-linejoin="round"/>
<path d="M13.5166 5.15001V8.30001" stroke="#677084" stroke-width="1.5" stroke-linecap="round" stroke-linejoin="round"/>
<path d="M3.2207 13.5052H17.5151" stroke="#677084" stroke-width="1.5" stroke-linecap="round" stroke-linejoin="round"/>
<path d="M13.5178 5.15C13.5178 4.1 12.9075 2.9809 11.9367 2.42039C10.9658 1.85987 9.76971 1.85987 8.79887 2.42039C7.82804 2.9809 7.21777 4.1 7.21777 5.15" stroke="#677084" stroke-width="1.5" stroke-linecap="round" stroke-linejoin="round"/>
</svg>
