<svg width="16" height="16" viewBox="0 0 16 16" fill="none" xmlns="http://www.w3.org/2000/svg">
<path d="M2.8939 11.2521L2.11858 6.62371C1.99246 5.87087 1.92941 5.49444 2.12358 5.24722C2.31775 5 2.67645 5 3.39386 5H12.6061C13.3235 5 13.6823 5 13.8764 5.24722C14.0706 5.49444 14.0075 5.87087 13.8814 6.62371L13.1061 11.2521C12.8327 12.8842 12.696 13.7003 12.1546 14.1835C11.6132 14.6667 10.8356 14.6667 9.28025 14.6667H6.71975C5.16443 14.6667 4.38676 14.6667 3.84539 14.1835C3.30402 13.7003 3.16731 12.8842 2.8939 11.2521Z" stroke="#013871"/>
<path d="M4.6665 5.00001V4.66668C4.6665 2.82573 6.15889 1.33334 7.99984 1.33334C9.84079 1.33334 11.3332 2.82573 11.3332 4.66668V5.00001" stroke="#013871"/>
<path d="M3 11.6667H13" stroke="#013871"/>
</svg>
