<svg width="16" height="16" viewBox="0 0 16 16" fill="none" xmlns="http://www.w3.org/2000/svg">
<path d="M7.97257 2.37034C8.38242 1.92629 8.58735 1.70426 8.80511 1.57475C9.33054 1.26226 9.97753 1.25254 10.5117 1.54912C10.7331 1.67203 10.9443 1.88781 11.3668 2.31936C11.7893 2.75091 12.0005 2.96669 12.1208 3.19285C12.4111 3.73856 12.4016 4.39948 12.0957 4.93623C11.9689 5.15868 11.7516 5.36802 11.3169 5.7867L6.14488 10.7682C5.32111 11.5616 4.90923 11.9583 4.39446 12.1594C3.8797 12.3605 3.31379 12.3457 2.18198 12.3161L2.02799 12.312C1.68343 12.303 1.51115 12.2985 1.411 12.1849C1.31086 12.0712 1.32453 11.8957 1.35187 11.5447L1.36672 11.3542C1.44369 10.3663 1.48217 9.87236 1.67507 9.42836C1.86797 8.98436 2.20072 8.62385 2.86622 7.90282L7.97257 2.37034Z" stroke="#E8EDFF" stroke-linejoin="round"/>
<path d="M7.38281 2.43335L11.2328 6.28335" stroke="#E8EDFF" stroke-linejoin="round"/>
<path d="M7.93164 12.3333L12.3316 12.3333" stroke="#E8EDFF" stroke-linecap="round" stroke-linejoin="round"/>
</svg>
