<svg width="16" height="16" viewBox="0 0 16 16" fill="none" xmlns="http://www.w3.org/2000/svg">
<path d="M7.86736 4.32632L8.85774 3.33593C9.97289 2.22079 11.4328 1.75824 12.9779 1.68265C13.5789 1.65325 13.8794 1.63855 14.1203 1.87951C14.3613 2.12046 14.3466 2.42095 14.3172 3.02192C14.2416 4.56699 13.779 6.02694 12.6639 7.14208L11.6735 8.13246C10.8579 8.94807 10.626 9.17996 10.7972 10.0647C10.9662 10.7405 11.1298 11.3949 10.6384 11.8863C10.0423 12.4823 9.49858 12.4823 8.90253 11.8863L4.11355 7.0973C3.5175 6.50124 3.51748 5.95752 4.11355 5.36145C4.60495 4.87005 5.25936 5.03362 5.93515 5.20258C6.81987 5.37381 7.05176 5.14192 7.86736 4.32632Z" stroke="#013871" stroke-linejoin="round"/>
<path d="M11.3304 4.66666H11.3364" stroke="#013871" stroke-linecap="round" stroke-linejoin="round"/>
<path d="M1.6665 14.3333L4.99984 11" stroke="#013871" stroke-linecap="round"/>
<path d="M5.6665 14.3333L6.99984 13" stroke="#013871" stroke-linecap="round"/>
<path d="M1.6665 10.3333L2.99984 9" stroke="#013871" stroke-linecap="round"/>
</svg>
