<svg width="16" height="17" viewBox="0 0 16 17" fill="none" xmlns="http://www.w3.org/2000/svg">
<path d="M14.4998 14.293L10.7238 10.517C11.6312 9.42766 12.0837 8.03042 11.9871 6.61595C11.8906 5.20149 11.2524 3.8787 10.2054 2.92276C9.15843 1.96682 7.78318 1.45134 6.36579 1.48354C4.9484 1.51575 3.59799 2.09316 2.59548 3.09567C1.59298 4.09818 1.01556 5.44859 0.983357 6.86598C0.951151 8.28337 1.46663 9.65861 2.42257 10.7056C3.37851 11.7526 4.7013 12.3908 6.11577 12.4873C7.53023 12.5839 8.92747 12.1314 10.0168 11.224L13.7928 15L14.4998 14.293ZM1.99981 7C1.99981 6.10998 2.26373 5.23996 2.7582 4.49993C3.25267 3.75991 3.95547 3.18314 4.77774 2.84254C5.60001 2.50195 6.50481 2.41283 7.37772 2.58647C8.25063 2.7601 9.05246 3.18868 9.68179 3.81802C10.3111 4.44736 10.7397 5.24918 10.9133 6.12209C11.087 6.99501 10.9979 7.89981 10.6573 8.72208C10.3167 9.54434 9.7399 10.2471 8.99988 10.7416C8.25986 11.2361 7.38983 11.5 6.49981 11.5C5.30675 11.4987 4.16292 11.0241 3.31929 10.1805C2.47567 9.33689 2.00114 8.19307 1.99981 7Z" fill="#677084"/>
</svg>
