<svg width="15" height="15" viewBox="0 0 15 15" fill="none" xmlns="http://www.w3.org/2000/svg">
<path d="M10.1927 2.73996C9.82329 2.73996 9.63859 2.73996 9.47033 2.67753C9.44696 2.66886 9.42392 2.65932 9.40127 2.64892C9.23814 2.57409 9.10754 2.44349 8.84634 2.18229C8.24516 1.58111 7.94456 1.28051 7.5747 1.2528C7.52497 1.24907 7.47503 1.24907 7.4253 1.2528C7.05544 1.28051 6.75484 1.58111 6.15366 2.18229C5.89246 2.44349 5.76186 2.57409 5.59873 2.64892C5.57607 2.65932 5.55304 2.66886 5.52967 2.67753C5.36141 2.73996 5.17671 2.73996 4.80732 2.73996H4.73918C3.79674 2.73996 3.32552 2.73996 3.03274 3.03274C2.73996 3.32552 2.73996 3.79674 2.73996 4.73918V4.80732C2.73996 5.17671 2.73996 5.36141 2.67753 5.52967C2.66886 5.55304 2.65932 5.57607 2.64892 5.59873C2.57409 5.76186 2.44349 5.89246 2.18229 6.15366C1.58111 6.75484 1.28051 7.05544 1.2528 7.4253C1.24907 7.47503 1.24907 7.52497 1.2528 7.5747C1.28051 7.94456 1.58111 8.24516 2.18229 8.84634C2.44349 9.10754 2.57409 9.23814 2.64892 9.40127C2.65932 9.42392 2.66886 9.44696 2.67753 9.47033C2.73996 9.63859 2.73996 9.82329 2.73996 10.1927V10.2608C2.73996 11.2033 2.73996 11.6745 3.03274 11.9673C3.32552 12.26 3.79674 12.26 4.73918 12.26H4.80732C5.17671 12.26 5.36141 12.26 5.52967 12.3225C5.55304 12.3311 5.57607 12.3407 5.59873 12.3511C5.76186 12.4259 5.89246 12.5565 6.15366 12.8177C6.75484 13.4189 7.05544 13.7195 7.4253 13.7472C7.47503 13.7509 7.52497 13.7509 7.5747 13.7472C7.94456 13.7195 8.24516 13.4189 8.84634 12.8177C9.10754 12.5565 9.23814 12.4259 9.40127 12.3511C9.42392 12.3407 9.44696 12.3311 9.47033 12.3225C9.63859 12.26 9.82329 12.26 10.1927 12.26H10.2608C11.2033 12.26 11.6745 12.26 11.9673 11.9673C12.26 11.6745 12.26 11.2033 12.26 10.2608V10.1927C12.26 9.82329 12.26 9.63859 12.3225 9.47033C12.3311 9.44696 12.3407 9.42392 12.3511 9.40127C12.4259 9.23814 12.5565 9.10754 12.8177 8.84634C13.4189 8.24516 13.7195 7.94456 13.7472 7.5747C13.7509 7.52497 13.7509 7.47503 13.7472 7.4253C13.7195 7.05544 13.4189 6.75484 12.8177 6.15366C12.5565 5.89246 12.4259 5.76186 12.3511 5.59873C12.3407 5.57607 12.3311 5.55304 12.3225 5.52967C12.26 5.36141 12.26 5.17671 12.26 4.80732V4.73918C12.26 3.79674 12.26 3.32552 11.9673 3.03274C11.6745 2.73996 11.2033 2.73996 10.2608 2.73996H10.1927Z" stroke="#14171F"/>
<path d="M9.6875 7.5C9.6875 8.70812 8.70812 9.6875 7.5 9.6875C6.29188 9.6875 5.3125 8.70812 5.3125 7.5C5.3125 6.29188 6.29188 5.3125 7.5 5.3125C8.70812 5.3125 9.6875 6.29188 9.6875 7.5Z" stroke="#14171F"/>
</svg>
