<svg width="32" height="32" viewBox="0 0 32 32" fill="none" xmlns="http://www.w3.org/2000/svg">
<path d="M0.5 16C0.5 7.43959 7.43959 0.5 16 0.5C24.5604 0.5 31.5 7.43959 31.5 16C31.5 24.5604 24.5604 31.5 16 31.5C7.43959 31.5 0.5 24.5604 0.5 16Z" fill="white"/>
<path d="M0.5 16C0.5 7.43959 7.43959 0.5 16 0.5C24.5604 0.5 31.5 7.43959 31.5 16C31.5 24.5604 24.5604 31.5 16 31.5C7.43959 31.5 0.5 24.5604 0.5 16Z" stroke="#DEE2EB"/>
<path fill-rule="evenodd" clip-rule="evenodd" d="M14.4608 10.8773L14.5305 10.7103C14.562 10.6345 14.577 10.5576 14.6016 10.4319C14.6075 10.4016 14.6139 10.3684 14.6213 10.3318C14.7745 9.57215 15.4449 9 16.25 9C17.0551 9 17.7255 9.57215 17.8787 10.3318C17.886 10.3684 17.8925 10.4016 17.8984 10.4319C17.9229 10.5575 17.938 10.6345 17.9696 10.7103L18.0392 10.8773C19.6519 11.5712 20.7812 13.1746 20.7812 15.0417V15.7972C20.7813 16.8118 21.3788 17.7315 22.306 18.1436L23.5 18.6743V19.1076C23.5 19.3883 23.5 19.626 23.4841 19.8209C23.4674 20.0253 23.4309 20.2221 23.3354 20.4097C23.1905 20.6939 22.9595 20.9249 22.6753 21.0697C22.4877 21.1653 22.2909 21.2018 22.0866 21.2185C21.8916 21.2344 21.654 21.2344 21.3733 21.2344H19.2708C19.0405 21.2344 18.7662 21.4462 18.6018 21.8385C18.2172 22.7558 17.3309 23.5 16.25 23.5C15.1691 23.5 14.2828 22.7558 13.8982 21.8385C13.7337 21.4462 13.4594 21.2344 13.2292 21.2344H11.1268C10.8461 21.2344 10.6083 21.2344 10.4135 21.2185C10.2091 21.2018 10.0123 21.1653 9.8247 21.0697C9.5405 20.9249 9.30943 20.6939 9.16463 20.4097C9.06903 20.2221 9.0326 20.0253 9.01591 19.8209C8.99999 19.626 8.99999 19.3883 9 19.1076V18.6743L10.1938 18.1437C11.121 17.7316 11.7187 16.812 11.7188 15.7974V15.0417C11.7188 13.1746 12.848 11.5712 14.4608 10.8773ZM15.5097 10.5109C15.5793 10.1659 15.8848 9.90625 16.25 9.90625C16.6152 9.90625 16.9207 10.1659 16.9903 10.5109C16.994 10.5294 16.998 10.5501 17.0022 10.5726C16.7576 10.5317 16.5063 10.5104 16.25 10.5104C15.9937 10.5104 15.7424 10.5317 15.4978 10.5726C15.502 10.5501 15.506 10.5294 15.5097 10.5109ZM16.25 11.4167C14.248 11.4167 12.625 13.0396 12.625 15.0417V15.7972C12.625 17.17 11.8165 18.4142 10.5621 18.9718L9.9064 19.2632C9.9069 19.473 9.90917 19.6249 9.91915 19.7471C9.93126 19.8954 9.95246 19.9597 9.9721 19.9983C10.03 20.112 10.1225 20.2043 10.2361 20.2623C10.2747 20.2819 10.339 20.3031 10.4873 20.3152C10.6408 20.3278 10.8412 20.3281 11.1448 20.3281H21.3552C21.6587 20.3281 21.8591 20.3278 22.0127 20.3152C22.161 20.3031 22.2253 20.2819 22.2639 20.2623C22.3776 20.2043 22.47 20.112 22.5279 19.9983C22.5475 19.9597 22.5687 19.8954 22.5808 19.7471C22.5908 19.6249 22.5931 19.473 22.5936 19.2632L21.9382 18.9718C20.6837 18.4142 19.8751 17.1701 19.875 15.7974V15.0417C19.875 13.0396 18.252 11.4167 16.25 11.4167ZM14.734 21.4882C14.6991 21.4051 14.6572 21.3195 14.6083 21.2344H17.8917C17.8428 21.3195 17.8008 21.4051 17.766 21.4882C17.4931 22.1392 16.8949 22.5938 16.25 22.5938C15.6051 22.5938 15.0069 22.1392 14.734 21.4882Z" fill="#677084"/>
<circle cx="24" cy="16" r="3" fill="#FF4844"/>
</svg>
