<svg width="51" height="50" viewBox="0 0 51 50" fill="none" xmlns="http://www.w3.org/2000/svg">
<circle cx="25.5" cy="25" r="25" fill="#F7F7F7"/>
<g clip-path="url(#clip0_110_1778)">
<path d="M13.0983 30.6938L10.1246 35.8438C10.0443 35.9822 10.0007 36.139 9.99817 36.299C9.99559 36.4591 10.034 36.6171 10.1099 36.7581C10.1857 36.8991 10.2963 37.0183 10.4313 37.1045C10.5663 37.1906 10.721 37.2407 10.8808 37.25L14.5983 37.4731L16.6502 40.5806C16.7358 40.7097 16.852 40.8155 16.9884 40.8887C17.1248 40.9618 17.2773 41.0001 17.4321 41H17.4602C17.6199 40.9952 17.7757 40.9497 17.9129 40.8678C18.0501 40.7859 18.164 40.6702 18.2439 40.5319L20.4471 36.7194C18.4678 35.9485 16.6711 34.7731 15.1721 33.2681C14.3907 32.4866 13.6955 31.6236 13.0983 30.6938Z" fill="#013871"/>
<path d="M41.8746 35.8438L38.9015 30.6938C38.3041 31.6225 37.6089 32.4845 36.8277 33.265C35.3287 34.7699 33.5321 35.9454 31.5527 36.7163L33.7559 40.5288C33.8353 40.6676 33.949 40.7838 34.0861 40.8663C34.2232 40.9488 34.3791 40.9948 34.539 41H34.5671C34.7221 40.9999 34.8746 40.9614 35.0111 40.8878C35.1475 40.8143 35.2636 40.7081 35.349 40.5788L37.4009 37.4713L41.1184 37.25C41.2782 37.2407 41.4329 37.1906 41.5679 37.1045C41.7028 37.0183 41.8135 36.8991 41.8893 36.7581C41.9651 36.6171 42.0036 36.4591 42.001 36.299C41.9984 36.139 41.9549 35.9822 41.8746 35.8438Z" fill="#013871"/>
<path d="M39.4379 22.4375C39.4372 19.7803 38.6487 17.183 37.1722 14.9738C35.6956 12.7647 33.5972 11.0429 31.1422 10.0262C28.6873 9.00939 25.986 8.74329 23.3798 9.26149C20.7737 9.77969 18.3797 11.0589 16.5004 12.9375C14.0601 15.4732 12.712 18.8651 12.7457 22.3841C12.7795 25.9032 14.1924 29.2686 16.6809 31.757C19.1693 34.2455 22.5347 35.6584 26.0538 35.6922C29.5728 35.7259 32.9647 34.3778 35.5004 31.9375C36.7522 30.693 37.7448 29.2125 38.4206 27.5819C39.0965 25.9512 39.4423 24.2027 39.4379 22.4375ZM33.9923 21.3031L31.0679 24.1644L31.7585 28.2056C31.806 28.478 31.7762 28.7583 31.6724 29.0147C31.5686 29.271 31.3951 29.4931 31.1715 29.6558C30.9479 29.8185 30.6831 29.9153 30.4073 29.9351C30.1315 29.955 29.8556 29.8971 29.611 29.7681L26.0004 27.86L22.3898 29.7656C22.1452 29.8946 21.8693 29.9525 21.5935 29.9326C21.3177 29.9128 21.0529 29.816 20.8293 29.6533C20.6057 29.4906 20.4322 29.2685 20.3284 29.0122C20.2246 28.7558 20.1948 28.4755 20.2423 28.2031L20.9298 24.1619L18.0054 21.3006C17.8082 21.1076 17.6688 20.8632 17.6029 20.5952C17.5371 20.3272 17.5474 20.0461 17.6327 19.7836C17.718 19.5212 17.8749 19.2877 18.0858 19.1096C18.2966 18.9315 18.553 18.8158 18.826 18.7756L22.8673 18.1875L24.6735 14.5131C24.7953 14.265 24.9842 14.0561 25.2187 13.9099C25.4532 13.7638 25.7241 13.6863 26.0004 13.6863C26.2767 13.6863 26.5476 13.7638 26.7821 13.9099C27.0166 14.0561 27.2055 14.265 27.3273 14.5131L29.1335 18.1875L33.1716 18.7769C33.4447 18.8171 33.7011 18.9328 33.9119 19.1109C34.1228 19.289 34.2797 19.5224 34.365 19.7849C34.4503 20.0474 34.4606 20.3285 34.3947 20.5965C34.3289 20.8645 34.1895 21.1088 33.9923 21.3019V21.3031Z" fill="#013871"/>
<path d="M27.5427 19.2025L26.0002 16.0625L24.4577 19.2C24.352 19.4157 24.1954 19.6025 24.0013 19.744C23.8073 19.8856 23.5816 19.9778 23.3439 20.0125L19.8877 20.5162L22.3914 22.9663C22.5626 23.1344 22.6904 23.3415 22.7637 23.5699C22.8371 23.7983 22.8539 24.0412 22.8127 24.2775L22.2227 27.7319L25.3083 26.1069C25.5207 25.9945 25.7574 25.9358 25.9977 25.9358C26.238 25.9358 26.4747 25.9945 26.6871 26.1069L29.7727 27.7319L29.1877 24.2775C29.1471 24.0412 29.1645 23.7987 29.2383 23.5706C29.3121 23.3425 29.4401 23.1358 29.6114 22.9681L32.1152 20.5181L28.6589 20.0144C28.4209 19.9801 28.1948 19.8882 28.0002 19.7467C27.8057 19.6053 27.6487 19.4184 27.5427 19.2025Z" fill="#013871"/>
</g>
<defs>
<clipPath id="clip0_110_1778">
<rect width="32" height="32" fill="white" transform="translate(10 9)"/>
</clipPath>
</defs>
</svg>
