<svg width="50" height="50" viewBox="0 0 50 50" fill="none" xmlns="http://www.w3.org/2000/svg">
<circle cx="25" cy="25" r="25" fill="#F7F7F7"/>
<g clip-path="url(#clip0_110_1742)">
<path d="M36.6267 11.96L35.5653 13.0213C32.6813 10.452 28.9653 9 25 9C16.1773 9 9 16.1773 9 25C9 26.564 9.23067 28.1187 9.684 29.6213C9.84267 30.148 10.396 30.4493 10.9307 30.2907C11.4587 30.1307 11.7587 29.5733 11.5987 29.044C11.2013 27.728 11 26.368 11 25C11 17.28 17.28 11 25 11C28.428 11 31.6427 12.24 34.1507 14.4347L33.2933 15.2933C32.664 15.92 33.108 17 34 17H37.3333C37.8853 17 38.3333 16.552 38.3333 16V12.6667C38.3333 11.7827 37.26 11.328 36.6267 11.96Z" fill="#013871"/>
<path d="M40.3163 20.3787C40.1563 19.8507 39.603 19.548 39.0697 19.7093C38.5417 19.8693 38.2417 20.4267 38.4017 20.956C38.799 22.272 39.0003 23.632 39.0003 25C39.0003 32.72 32.7203 39 25.0003 39C21.5723 39 18.3577 37.76 15.8497 35.5653L16.707 34.7067C17.3363 34.08 16.8923 33 16.0003 33H12.667C12.115 33 11.667 33.448 11.667 34V37.3333C11.667 38.2253 12.7483 38.6653 13.3737 38.04L14.435 36.9787C17.319 39.548 21.035 41 25.0003 41C33.823 41 41.0003 33.8227 41.0003 25C41.0003 23.436 40.7697 21.8813 40.3163 20.3787Z" fill="#013871"/>
<path d="M25.0003 15.6667L34.3337 19.6667L25.0003 23.6667L15.667 19.6667L25.0003 15.6667Z" fill="#013871"/>
<path d="M23.667 25.996L15.667 22.568V30.3333C15.667 30.6093 15.8363 30.8573 16.0937 30.956L23.667 33.868V25.996Z" fill="#013871"/>
<path d="M26.333 25.996V33.868L33.9063 30.9547C34.1637 30.8573 34.333 30.6093 34.333 30.3333V22.568L26.333 25.996Z" fill="#013871"/>
</g>
<defs>
<clipPath id="clip0_110_1742">
<rect width="32" height="32" fill="white" transform="translate(9 9)"/>
</clipPath>
</defs>
</svg>
